# xmcd
#
# Track frame offsets:
#	150
#	18285
#	36191
#	51710
#	69536
#	94780
#	108479
#	123616
#	139459
#	156104
#	171284
#	184444
#	200658
#	218212
#
# Disc length: 3119 seconds
#
# Revision: 1
# Processed by: cddbd v1.5.1PL2 Copyright (c) Steve Scherf et al.
# Submitted via: audiograbber 1.83.01
#
DISCID=dd0c2d0e
DTITLE=Star Disk - SD137
DYEAR=1900
DGENRE=Karaoke
TTITLE0=Chesney, Kenny - Who You'd Be Today
TTITLE1=Adkins, Trace - Honky Tonk Badonkadonk
TTITLE2=McGraw, Tim - My Old Friend
TTITLE3=Paisley, Brad and Dolly Parton - When I Get Where I'm Going
TTITLE4=Brooks and Dunn - Believe
TTITLE5=Lambert, Miranda - Kerosene
TTITLE6=Van Zant - Nobody Gonna Tell Me What To Do
TTITLE7=Peck, Danielle - I Don't
TTITLE8=Black, Clint - Code Of The West
TTITLE9=Cross Canadian Ragweed - Fightin' For
TTITLE10=Hot Apple Pie - We're Makin' Up
TTITLE11=Raye, Collin - I Know That's Right
TTITLE12=Canyon, George - You're In The Right Place
TTITLE13=Wynonna - Attitude
EXTD=
EXTT0=
EXTT1=
EXTT2=
EXTT3=
EXTT4=
EXTT5=
EXTT6=
EXTT7=
EXTT8=
EXTT9=
EXTT10=
EXTT11=
EXTT12=
EXTT13=
PLAYORDER=
